:FULLY-SPECIFIED
:DEGREES
1422
root 0.914307 15.6862 -2.24556 3275.01 -96.4638 -3273.75
lowerback 5.17602 1.72458 -7.72363
upperback -1.34544 1.7468 -0.275552
thorax -4.54431 1.06601 3.88637
lowerneck -17.2791 0.717273 1.0964
upperneck 22.9983 1.08404 -2.42212
head 10.2202 0.20943 -0.90898
rclavicle -3.04141e-014 3.29486e-014
rhumerus -44.442 -34.1185 -63.5727
rradius 10.2635
rwrist 41.0227
rhand -28.5429 -16.9848
rfingers 7.12502
rthumb -1.91024 -46.956
lclavicle -3.04141e-014 3.29486e-014
lhumerus -23.1432 -7.76376 90.3284
lradius 30.4208
lwrist 8.49135
lhand -32.9626 15.2372
lfingers 7.12502
lthumb -6.17807 45.1271
rfemur -24.1749 -4.97706 16.2156
rtibia 69.145
rfoot -8.27731 -17.6508
rtoes -9.54204
lfemur -7.08027 -6.13168 -30.0172
ltibia 21.894
lfoot -12.1492 6.60449
ltoes -5.8443
1423
root 0.929305 15.6701 -2.2481 3278.02 -96.3423 -3276.82
lowerback 5.30248 1.60903 -7.98046
upperback -1.29778 1.56365 -0.292251
thorax -4.5509 0.980398 4.02901
lowerneck -17.2589 0.74846 1.07737
upperneck 22.9383 1.13668 -2.43346
head 10.1958 0.231626 -0.902
rclavicle -1.59028e-015 -1.33186e-014
rhumerus -43.8346 -32.4136 -65.0682
rradius 10.604
rwrist 38.1333
rhand -28.3693 -17.5126
rfingers 7.12502
rthumb -1.74261 -47.4852
lclavicle -1.59028e-015 -1.33186e-014
lhumerus -22.6412 -7.86854 90.093
lradius 31.0134
lwrist 8.51642
lhand -33.1411 15.1369
lfingers 7.12502
lthumb -6.35048 45.0217
rfemur -25.152 -4.70412 16.2757
rtibia 68.3033
rfoot -9.63305 -17.8681
rtoes -9.79863
lfemur -6.54799 -6.17363 -30.3417
ltibia 22.1025
lfoot -12.6319 6.40397
ltoes -6.55113
1424
root 0.946832 15.6591 -2.2494 3279.35 -96.1453 -3278.17
lowerback 5.43613 1.51964 -7.97353
upperback -1.28057 1.43425 -0.274552
thorax -4.5919 0.917513 4.05426
lowerneck -17.2759 0.755379 1.03519
upperneck 22.9167 1.15131 -2.40324
head 10.1911 0.238728 -0.881977
rclavicle -2.10712e-014 4.65902e-015
rhumerus -43.4224 -31.1087 -66.1582
rradius 10.8786
rwrist 35.7051
rhand -28.2122 -17.5097
rfingers 7.12502
rthumb -1.59089 -47.4835
lclavicle -2.10712e-014 4.65902e-015
lhumerus -22.1685 -8.02363 89.8782
lradius 31.709
lwrist 8.90508
lhand -33.217 15.1865
lfingers 7.12502
lthumb -6.42368 45.0691
rfemur -26.125 -4.32131 16.5968
rtibia 67.1734
rfoot -10.7823 -18.308
rtoes -10.5262
lfemur -6.09549 -6.19266 -30.4161
ltibia 22.3223
lfoot -12.9532 6.10436
ltoes -6.79684
1425
root 0.962973 15.6361 -2.25253 3280.85 -96.0694 -3279.67
lowerback 5.51335 1.46503 -8.04739
upperback -1.26254 1.34832 -0.293762
thorax -4.60719 0.876469 4.08306
lowerneck -17.2809 0.763754 1.01271
upperneck 22.9037 1.15821 -2.35781
head 10.1871 0.245725 -0.861029
rclavicle -1.39149e-015 1.01877e-015
rhumerus -43.1192 -30.0036 -67.0752
rradius 11.0921
rwrist 33.7626
rhand -28.1416 -17.576
rfingers 7.12502
rthumb -1.52265 -47.5503
lclavicle -1.39149e-015 1.01877e-015
lhumerus -21.6814 -8.22266 89.6303
lradius 32.2866
lwrist 9.28135
lhand -33.226 15.1166
lfingers 7.12502
lthumb -6.4324 44.9989
rfemur -26.9675 -3.93098 16.8121
rtibia 65.7828
rfoot -11.9429 -18.8487
rtoes -10.1264
lfemur -5.69108 -6.19143 -30.5767
ltibia 22.632
lfoot -13.4807 5.95778
ltoes -6.92746
1426
root 0.975761 15.6236 -2.25616 3282.76 -96.0454 -3281.64
lowerback 5.61826 1.43259 -8.19013
upperback -1.23403 1.28368 -0.323843
thorax -4.63162 0.847518 4.1367
lowerneck -17.2882 0.759472 0.977191
upperneck 22.8878 1.1553 -2.32839
head 10.1823 0.24519 -0.844883
rclavicle 3.18055e-015 -2.15184e-014
rhumerus -42.9905 -29.306 -67.595
rradius 11.2863
rwrist 32.6412
rhand -27.8661 -17.6126
rfingers 7.12502
rthumb -1.2566 -47.5886
lclavicle 3.18055e-015 -2.15184e-014
lhumerus -21.2351 -8.38294 89.4344
lradius 32.8105
lwrist 9.46481
lhand -33.1269 15.0511
lfingers 7.12502
lthumb -6.33671 44.9363
rfemur -27.7004 -3.47363 16.9415
rtibia 64.1395
rfoot -12.9906 -19.5538
rtoes -11.1247
lfemur -5.15586 -6.1537 -30.8074
ltibia 22.8021
lfoot -13.8571 5.79417
ltoes -7.38362
1427
root 0.995653 15.6114 -2.26486 3285.76 -95.8831 -3284.5
lowerback 5.66773 1.34652 -8.332
upperback -1.27864 1.1497 -0.346363
thorax -4.69216 0.788048 4.2051
lowerneck -17.2985 0.747091 0.982752
upperneck 22.8823 1.13978 -2.34058
head 10.182 0.237257 -0.852193
rclavicle -1.2921e-014 1.61016e-014
rhumerus -42.8807 -28.8541 -67.9504
rradius 11.4373
rwrist 31.8248
rhand -27.6078 -17.5945
rfingers 7.12502
rthumb -1.00708 -47.5719
lclavicle -1.2921e-014 1.61016e-014
lhumerus -20.8687 -8.62379 89.271
lradius 33.4171
lwrist 9.68843
lhand -33.1554 15.2035
lfingers 7.12502
lthumb -6.36427 45.0879
rfemur -28.4333 -3.18152 17.1067
rtibia 62.2638
rfoot -14.2826 -20.1844
rtoes -11.0682
lfemur -4.77472 -6.20079 -30.9342
ltibia 22.8212
lfoot -14.054 5.54193
ltoes -8.25673
1428
root 1.01129 15.615 -2.27194 3288.12 -95.8503 -3286.78
lowerback 5.72482 1.30035 -8.51645
upperback -1.30544 1.06564 -0.364373
thorax -4.74591 0.75382 4.29723
lowerneck -17.3156 0.749923 0.988532
upperneck 22.8836 1.1501 -2.37065
head 10.1862 0.2389 -0.862376
rclavicle -9.34288e-015 2.66496e-014
rhumerus -42.7433 -28.5714 -68.1717
rradius 11.483
rwrist 31.4158
rhand -27.438 -17.5156
rfingers 7.12502
rthumb -0.843102 -47.4936
lclavicle -9.34288e-015 2.66496e-014
lhumerus -20.5026 -8.87589 89.1373
lradius 33.9332
lwrist 9.98291
lhand -33.0427 15.3756
lfingers 7.12502
lthumb -6.25545 45.2632
rfemur -29.0608 -2.658 17.1549
rtibia 60.1556
rfoot -15.634 -20.8075
rtoes -9.84797
lfemur -4.16582 -6.38449 -31.1308
ltibia 22.5997
lfoot -14.2334 5.46042
ltoes -8.33975
1429
root 1.02336 15.6187 -2.28005 3289.87 -95.8024 -3288.43
lowerback 5.72002 1.27528 -8.63817
upperback -1.31378 1.02281 -0.363923
thorax -4.74916 0.73629 4.37044
lowerneck -17.3599 0.745838 0.985119
upperneck 22.873 1.15354 -2.39824
head 10.1911 0.237227 -0.870934
rclavicle -1.25234e-014 -1.27098e-014
rhumerus -42.6569 -28.6838 -68.1077
rradius 11.4423
rwrist 31.568
rhand -27.3799 -17.3582
rfingers 7.12502
rthumb -0.786996 -47.3365
lclavicle -1.25234e-014 -1.27098e-014
lhumerus -20.1347 -9.06439 89.0369
lradius 34.342
lwrist 10.1926
lhand -33.11 15.2495
lfingers 7.12502
lthumb -6.32039 45.1352
rfemur -29.5308 -2.05564 17.2553
rtibia 57.7946
rfoot -16.3566 -21.5815
rtoes -10.3862
lfemur -3.49561 -6.43103 -31.2366
ltibia 22.2428
lfoot -14.3611 5.29642
ltoes -8.78691
1430
root 1.03816 15.6205 -2.28844 3291.86 -95.7979 -3290.19
lowerback 5.61669 1.25347 -8.77953
upperback -1.36853 0.988783 -0.393009
thorax -4.74651 0.724194 4.42344
lowerneck -17.3806 0.728224 0.993793
upperneck 22.8597 1.12989 -2.40912
head 10.1898 0.226244 -0.879326
rclavicle 8.54774e-015 -1.62134e-014
rhumerus -42.6342 -29.0982 -67.8494
rradius 11.365
rwrist 32.1958
rhand -27.2987 -17.299
rfingers 7.12502
rthumb -0.708611 -47.2776
lclavicle 8.54774e-015 -1.62134e-014
lhumerus -19.793 -9.34776 88.9292
lradius 34.7141
lwrist 10.309
lhand -33.0474 15.3512
lfingers 7.12502
lthumb -6.25995 45.2387
rfemur -30.0005 -1.44314 17.2814
rtibia 55.2714
rfoot -17.0765 -22.1707
rtoes -10.0321
lfemur -2.85666 -6.50305 -31.3701
ltibia 21.6333
lfoot -14.2739 5.16024
ltoes -9.27352
1431
root 1.05136 15.6297 -2.29714 3293.39 -95.8023 -3291.51
lowerback 5.50943 1.24059 -8.90277
upperback -1.40828 0.970395 -0.407425
thorax -4.72776 0.718575 4.48024
lowerneck -17.3856 0.714787 0.987993
upperneck 22.8015 1.11598 -2.41707
head 10.1695 0.219679 -0.882493
rclavicle 9.34288e-015 -7.09413e-015
rhumerus -42.5754 -29.7422 -67.4339
rradius 11.2116
rwrist 33.0962
rhand -27.2416 -17.0986
rfingers 7.12502
rthumb -0.653429 -47.0773
lclavicle 9.34288e-015 -7.09413e-015
lhumerus -19.5015 -9.6165 88.8389
lradius 35.0324
lwrist 10.4012
lhand -32.9965 15.4365
lfingers 7.12502
lthumb -6.21082 45.3255
rfemur -30.3422 -0.812787 17.2939
rtibia 52.5365
rfoot -17.5907 -22.6957
rtoes -9.36542
lfemur -2.12095 -6.46193 -31.47
ltibia 20.9225
lfoot -14.2012 5.01395
ltoes -9.6038
